<?xml version="1.0" standalone="no"?>
<!DOCTYPE svg PUBLIC "-//W3C//DTD SVG 20010904//EN"
 "http://www.w3.org/TR/2001/REC-SVG-20010904/DTD/svg10.dtd">
<svg version="1.0" xmlns="http://www.w3.org/2000/svg"
 width="500.000000pt" height="500.000000pt" viewBox="0 0 500.000000 500.000000"
 preserveAspectRatio="xMidYMid meet">
<metadata>
Created by potrace 1.14, written by Peter Selinger 2001-2017
</metadata>
<g transform="translate(0.000000,500.000000) scale(0.100000,-0.100000)"
fill="#000000" stroke="none">
<path d="M0 2500 l0 -2500 2500 0 2500 0 0 2500 0 2500 -2500 0 -2500 0 0
-2500z m2041 2374 c83 -64 157 -126 165 -139 13 -21 12 -33 -10 -129 -27 -117
-24 -151 15 -192 37 -39 124 -66 214 -67 148 -1 267 55 314 148 23 45 26 61
26 172 0 71 4 126 10 132 6 6 66 33 133 60 105 43 122 47 117 31 -3 -11 -44
-97 -89 -192 -46 -95 -80 -174 -76 -176 4 -2 47 13 96 33 48 19 89 35 91 35 2
0 -29 -48 -68 -107 -79 -118 -77 -110 -94 -363 l-7 -96 -111 24 c-92 19 -146
24 -297 25 -102 1 -216 -2 -255 -7 l-70 -9 74 -13 c104 -18 105 -20 21 -28
-227 -21 -584 -135 -779 -250 l-60 -35 -30 72 -30 72 26 22 c39 32 252 135
364 177 189 70 395 120 625 151 l109 14 -135 -4 c-266 -8 -634 -95 -929 -219
l-80 -34 -58 55 c-32 30 -68 61 -80 70 -35 23 -27 32 18 22 23 -6 44 -7 47 -5
2 3 -52 65 -121 138 -78 83 -121 135 -114 139 24 13 188 19 208 8 11 -5 35
-43 54 -84 25 -56 42 -80 72 -99 86 -57 284 -71 370 -27 52 26 132 106 150
149 20 49 9 86 -53 172 -33 45 -54 85 -54 101 0 21 40 144 115 357 2 6 7 12
11 12 3 0 73 -52 155 -116z m529 -929 c95 -9 278 -52 393 -92 124 -43 220 -90
316 -157 l75 -51 -32 -5 -31 -5 131 -180 c72 -99 147 -200 168 -225 55 -67 57
-72 23 -64 l-28 7 29 -39 c17 -21 107 -140 201 -264 94 -124 175 -231 179
-239 8 -12 -5 -13 -80 -8 -49 3 -106 11 -126 18 -33 11 -38 16 -38 43 0 29
-15 66 -22 56 -6 -9 -58 -120 -58 -124 0 -2 56 -34 125 -71 69 -37 125 -73
125 -79 0 -42 -132 -206 -165 -206 -37 0 -363 73 -382 85 -52 34 -201 251
-184 268 5 5 57 26 117 47 60 21 99 39 88 39 -52 2 -226 54 -302 92 -144 70
-248 199 -260 320 -9 97 72 206 188 250 27 10 60 19 72 19 46 0 6 11 -108 30
-157 26 -160 26 -192 -11 -115 -133 -170 -313 -139 -449 9 -36 14 -66 12 -68
-7 -7 -69 94 -106 172 -60 128 -83 236 -83 391 -1 72 3 157 7 190 l8 60 -25
-30 c-30 -37 -88 -152 -109 -220 -47 -144 -59 -357 -32 -539 18 -121 40 -207
48 -186 3 8 21 70 41 137 20 68 42 137 50 155 l14 33 1 -32 c1 -45 28 -166 53
-243 27 -83 78 -187 136 -274 50 -75 217 -256 237 -256 8 0 14 25 18 73 5 75
48 222 71 245 11 11 14 -2 19 -70 8 -103 37 -208 86 -314 55 -118 112 -197
212 -296 48 -49 82 -88 75 -88 -29 0 -173 42 -224 65 -30 14 -57 23 -60 20 -3
-3 14 -26 39 -51 129 -133 322 -222 578 -267 l123 -21 -28 -23 c-72 -59 -237
-123 -316 -123 -45 0 -45 -1 -13 -104 54 -174 70 -279 70 -466 0 -141 -4 -187
-18 -235 -22 -70 -67 -175 -76 -175 -3 0 -5 46 -3 101 4 119 -16 260 -54 380
-27 87 -101 245 -111 236 -2 -3 0 -37 6 -76 15 -98 14 -280 -4 -386 -34 -210
-155 -459 -277 -573 l-25 -22 34 117 c77 266 110 569 84 754 -7 46 -35 149
-62 229 -81 237 -131 463 -163 739 -9 74 -18 136 -20 138 -8 9 -25 -95 -31
-197 -8 -125 7 -323 40 -547 14 -89 25 -195 25 -235 0 -178 -58 -401 -149
-574 -48 -90 -140 -229 -147 -221 -3 2 7 46 21 98 45 172 66 323 72 520 9 283
-12 415 -112 719 -76 233 -110 411 -133 710 l-8 95 -14 -90 c-16 -108 -17
-405 -1 -560 7 -60 26 -198 43 -305 26 -166 31 -223 32 -380 0 -199 -11 -289
-59 -455 -25 -89 -108 -271 -140 -310 -9 -11 -14 -14 -10 -7 12 22 33 174 40
283 8 118 -6 289 -35 421 -22 99 -54 194 -135 391 -148 364 -186 754 -103
1066 34 130 34 131 3 91 -34 -45 -82 -139 -107 -210 -65 -190 -68 -417 -9
-697 55 -261 62 -420 25 -583 -16 -72 -71 -189 -109 -235 l-25 -30 0 70 c-1
166 -48 405 -135 691 -31 98 -62 217 -71 264 -35 199 -28 424 20 613 13 51 22
94 20 96 -9 10 -77 -154 -100 -244 -25 -91 -27 -117 -27 -290 0 -104 3 -289 7
-410 9 -245 -1 -344 -49 -510 -31 -108 -45 -127 -45 -63 0 165 -102 517 -275
953 -90 227 -108 285 -125 415 -46 333 124 710 439 972 47 39 91 76 96 81 22
18 -93 -37 -166 -80 -109 -65 -202 -136 -293 -226 -88 -87 -89 -83 -12 47 213
360 506 588 863 671 164 38 418 39 577 1 l59 -14 -24 23 c-13 13 -51 40 -84
60 -36 22 -50 34 -35 31 14 -3 54 -8 90 -11z m1092 -1749 c39 -14 76 -30 81
-35 20 -20 -74 -184 -162 -283 -47 -53 -66 -61 -51 -22 16 41 11 125 -9 169
l-19 40 -7 -33 c-8 -35 -25 -54 -25 -27 0 22 -83 109 -136 142 -24 16 -44 31
-44 34 0 5 66 28 125 43 44 11 177 -4 247 -28z"/>
<path d="M1933 4765 c-42 -30 -34 -121 12 -139 49 -19 96 -1 115 44 15 35 0
84 -31 100 -26 15 -72 12 -96 -5z"/>
<path d="M3063 3224 c3 -3 48 -25 99 -48 117 -53 246 -136 316 -204 28 -28 52
-48 52 -45 0 3 -25 48 -56 100 -53 91 -55 95 -38 114 16 18 15 19 -22 35 -61
26 -212 54 -288 54 -38 0 -67 -3 -63 -6z"/>
</g>
</svg>
